<svg width="372" height="624" viewBox="0 0 372 624" fill="none" xmlns="http://www.w3.org/2000/svg">
<path fill-rule="evenodd" clip-rule="evenodd" d="M35.831 375.757C37.1567 375.057 38.7974 375.563 39.4956 376.885L43.2878 384.071L52.8898 379.004C54.2156 378.304 55.8563 378.809 56.5544 380.132C57.2525 381.455 56.7438 383.094 55.418 383.794L45.816 388.862L52.1364 400.838L55.7371 398.937C58.6021 397.426 61.949 397.111 65.0416 398.063C68.1342 399.016 70.7191 401.157 72.2278 404.015C73.7364 406.874 74.0452 410.216 73.0861 413.307C72.1271 416.397 69.9788 418.983 67.1139 420.495L63.5131 422.395L67.3053 429.581C68.0035 430.903 67.4947 432.543 66.1689 433.243C64.8432 433.942 63.2025 433.437 62.5043 432.114L58.7121 424.929L46.7096 431.263C45.3838 431.963 43.7431 431.457 43.045 430.135C42.3469 428.812 42.8557 427.172 44.1814 426.472L56.1839 420.138L49.8635 408.162L46.2628 410.062C43.3978 411.574 40.0509 411.889 36.9583 410.936C33.8657 409.984 31.2808 407.843 29.7721 404.985C28.2635 402.126 27.9547 398.784 28.9138 395.693C29.8728 392.603 32.0211 390.017 34.8861 388.505L38.4868 386.605L34.6946 379.419C33.9964 378.096 34.5052 376.457 35.831 375.757ZM41.015 391.395L37.4142 393.296C35.8226 394.136 34.6291 395.572 34.0963 397.289C33.5635 399.006 33.735 400.863 34.5732 402.451C35.4113 404.039 36.8474 405.228 38.5655 405.757C40.2836 406.286 42.143 406.112 43.7346 405.272L47.3354 403.371L41.015 391.395ZM54.6645 405.628L60.9849 417.604L64.5857 415.704C66.1773 414.864 67.3708 413.428 67.9036 411.711C68.4364 409.994 68.2649 408.137 67.4267 406.549C66.5886 404.961 65.1525 403.771 63.4344 403.242C61.7163 402.713 59.8569 402.888 58.2653 403.728L54.6645 405.628Z" fill="#010E11" fill-opacity="0.12"/>
<path fill-rule="evenodd" clip-rule="evenodd" d="M296.198 99.5333C297.677 99.7743 298.682 101.167 298.441 102.643L297.135 110.662L307.851 112.408C309.331 112.649 310.335 114.041 310.095 115.517C309.854 116.994 308.46 117.995 306.98 117.754L296.264 116.008L294.087 129.374L298.105 130.028C301.303 130.549 304.163 132.316 306.056 134.94C307.949 137.564 308.721 140.831 308.201 144.021C307.682 147.211 305.913 150.064 303.285 151.952C300.657 153.839 297.384 154.607 294.186 154.086L290.168 153.432L288.862 161.451C288.621 162.927 287.227 163.929 285.747 163.688C284.268 163.447 283.263 162.055 283.504 160.578L284.81 152.559L271.415 150.377C269.936 150.136 268.931 148.744 269.172 147.267C269.412 145.791 270.806 144.79 272.286 145.031L285.681 147.213L287.858 133.847L283.84 133.193C280.642 132.672 277.783 130.905 275.889 128.281C273.996 125.657 273.224 122.39 273.744 119.2C274.263 116.01 276.032 113.157 278.66 111.269C281.289 109.382 284.561 108.614 287.759 109.135L291.777 109.789L293.083 101.77C293.324 100.294 294.718 99.2923 296.198 99.5333ZM290.906 115.136L286.888 114.481C285.112 114.192 283.293 114.618 281.833 115.667C280.373 116.715 279.39 118.3 279.102 120.073C278.813 121.845 279.242 123.66 280.294 125.118C281.345 126.575 282.934 127.557 284.711 127.846L288.729 128.501L290.906 115.136ZM293.216 134.72L291.039 148.086L295.057 148.74C296.834 149.029 298.652 148.603 300.112 147.554C301.572 146.506 302.555 144.921 302.843 143.148C303.132 141.376 302.703 139.561 301.652 138.103C300.6 136.646 299.011 135.664 297.235 135.375L293.216 134.72Z" fill="#010E11" fill-opacity="0.12"/>
<path fill-rule="evenodd" clip-rule="evenodd" d="M-6.57994 9.55976C-5.28444 8.80555 -3.62415 9.24205 -2.87159 10.5347L1.2163 17.5564L10.5992 12.0939C11.8947 11.3397 13.555 11.7762 14.3075 13.0689C15.0601 14.3616 14.62 16.0209 13.3245 16.7751L3.94156 22.2376L10.7547 33.9405L14.2733 31.8921C17.0729 30.2622 20.4038 29.8088 23.5333 30.6316C26.6629 31.4544 29.3346 33.4859 30.9609 36.2793C32.5872 39.0728 33.0347 42.3992 32.2051 45.5269C31.3754 48.6547 29.3365 51.3274 26.537 52.9573L23.0184 55.0057L27.1063 62.0274C27.8588 63.3201 27.4187 64.9794 26.1232 65.7336C24.8277 66.4878 23.1674 66.0513 22.4148 64.7587L18.327 57.7369L6.59834 64.5651C5.30284 65.3193 3.64255 64.8828 2.88999 63.5901C2.13743 62.2975 2.57757 60.6381 3.87308 59.8839L15.6017 53.0558L8.78854 41.3529L5.26995 43.4013C2.47039 45.0312 -0.860533 45.4846 -3.99006 44.6618C-7.11959 43.839 -9.79137 41.8075 -11.4176 39.0141C-13.0439 36.2206 -13.4914 32.8942 -12.6618 29.7665C-11.8321 26.6387 -9.79329 23.966 -6.99373 22.3361L-3.47514 20.2877L-7.56304 13.266C-8.3156 11.9733 -7.87545 10.314 -6.57994 9.55976ZM-0.749881 24.9689L-4.26846 27.0173C-5.82377 27.9228 -6.95648 29.4076 -7.41739 31.1453C-7.8783 32.8829 -7.62967 34.7309 -6.72619 36.2828C-5.82271 37.8347 -4.33839 38.9633 -2.59976 39.4204C-0.861134 39.8775 0.989381 39.6256 2.54469 38.7202L6.06327 36.6717L-0.749881 24.9689ZM13.48 38.6216L20.2931 50.3245L23.8117 48.2761C25.367 47.3706 26.4997 45.8858 26.9606 44.1481C27.4216 42.4105 27.1729 40.5625 26.2694 39.0106C25.366 37.4587 23.8816 36.33 22.143 35.8729C20.4044 35.4159 18.5539 35.6677 16.9986 36.5732L13.48 38.6216Z" fill="#010E11" fill-opacity="0.12"/>
<path fill-rule="evenodd" clip-rule="evenodd" d="M304.381 285.2C305.876 285.311 306.998 286.61 306.887 288.102L306.285 296.205L317.112 297.009C318.607 297.12 319.729 298.42 319.618 299.911C319.508 301.403 318.206 302.522 316.711 302.411L305.884 301.607L304.88 315.111L308.94 315.413C312.171 315.653 315.174 317.163 317.289 319.613C319.404 322.062 320.457 325.248 320.218 328.472C319.978 331.695 318.465 334.691 316.011 336.801C313.558 338.91 310.364 339.961 307.134 339.721L303.074 339.419L302.471 347.522C302.361 349.013 301.059 350.132 299.564 350.021C298.069 349.91 296.947 348.611 297.058 347.119L297.66 339.017L284.126 338.011C282.631 337.9 281.509 336.6 281.62 335.109C281.731 333.617 283.032 332.498 284.527 332.609L298.061 333.615L299.065 320.11L295.005 319.809C291.774 319.569 288.771 318.058 286.656 315.609C284.541 313.16 283.488 309.973 283.727 306.75C283.967 303.526 285.48 300.53 287.933 298.42C290.387 296.311 293.581 295.261 296.811 295.501L300.871 295.802L301.473 287.7C301.584 286.208 302.886 285.089 304.381 285.2ZM300.47 301.204L296.41 300.902C294.615 300.769 292.841 301.353 291.478 302.525C290.115 303.697 289.274 305.361 289.141 307.152C289.008 308.943 289.593 310.713 290.768 312.074C291.943 313.434 293.611 314.274 295.406 314.407L299.466 314.709L300.47 301.204ZM304.479 320.513L303.475 334.017L307.535 334.319C309.33 334.452 311.104 333.869 312.467 332.697C313.83 331.525 314.671 329.86 314.804 328.07C314.937 326.279 314.352 324.508 313.177 323.148C312.002 321.787 310.334 320.948 308.539 320.814L304.479 320.513Z" fill="#010E11" fill-opacity="0.12"/>
<path fill-rule="evenodd" clip-rule="evenodd" d="M224.747 582.785C226.147 582.25 227.715 582.949 228.249 584.346L231.151 591.935L241.292 588.057C242.693 587.522 244.261 588.221 244.795 589.618C245.329 591.015 244.627 592.581 243.227 593.117L233.086 596.994L237.922 609.643L241.725 608.189C244.751 607.032 248.111 607.122 251.067 608.438C254.023 609.755 256.332 612.191 257.487 615.21C258.641 618.229 258.546 621.585 257.223 624.537C255.9 627.49 253.456 629.799 250.431 630.956L246.628 632.41L249.529 640C250.064 641.397 249.362 642.963 247.961 643.499C246.561 644.034 244.993 643.335 244.459 641.938L241.557 634.349L228.881 639.196C227.481 639.732 225.912 639.033 225.378 637.636C224.844 636.239 225.546 634.672 226.946 634.137L239.623 629.29L234.786 616.641L230.983 618.095C227.957 619.252 224.597 619.162 221.641 617.846C218.685 616.529 216.376 614.093 215.222 611.074C214.067 608.055 214.162 604.7 215.486 601.747C216.809 598.794 219.252 596.485 222.278 595.328L226.081 593.874L223.179 586.285C222.645 584.887 223.347 583.321 224.747 582.785ZM228.015 598.933L224.212 600.387C222.531 601.03 221.174 602.313 220.439 603.953C219.704 605.594 219.651 607.458 220.292 609.135C220.934 610.812 222.217 612.166 223.859 612.897C225.501 613.629 227.368 613.679 229.049 613.036L232.852 611.582L228.015 598.933ZM239.857 614.702L244.693 627.351L248.496 625.897C250.177 625.254 251.534 623.971 252.27 622.331C253.005 620.69 253.057 618.826 252.416 617.149C251.775 615.472 250.492 614.118 248.85 613.387C247.208 612.655 245.341 612.606 243.66 613.248L239.857 614.702Z" fill="#010E11" fill-opacity="0.12"/>
<path fill-rule="evenodd" clip-rule="evenodd" d="M224.078 421.736C225.03 421.599 225.914 422.259 226.05 423.21L226.793 428.375L233.694 427.383C234.647 427.246 235.531 427.905 235.667 428.856C235.804 429.807 235.142 430.689 234.189 430.826L227.288 431.818L228.525 440.426L231.113 440.054C233.173 439.758 235.265 440.29 236.93 441.534C238.595 442.777 239.696 444.63 239.991 446.685C240.287 448.74 239.752 450.828 238.505 452.49C237.257 454.152 235.4 455.252 233.341 455.548L230.753 455.92L231.495 461.085C231.632 462.036 230.97 462.918 230.017 463.055C229.064 463.192 228.181 462.532 228.044 461.581L227.302 456.416L218.675 457.656C217.722 457.793 216.839 457.134 216.702 456.183C216.566 455.232 217.227 454.35 218.18 454.213L226.807 452.973L225.57 444.365L222.981 444.737C220.922 445.033 218.83 444.501 217.165 443.257C215.5 442.014 214.399 440.161 214.104 438.106C213.808 436.051 214.343 433.963 215.59 432.301C216.837 430.639 218.695 429.539 220.754 429.243L223.342 428.871L222.6 423.706C222.463 422.755 223.125 421.873 224.078 421.736ZM223.837 432.314L221.249 432.686C220.105 432.851 219.073 433.462 218.38 434.385C217.687 435.309 217.39 436.469 217.554 437.61C217.718 438.752 218.33 439.781 219.255 440.472C220.18 441.163 221.342 441.458 222.486 441.294L225.075 440.922L223.837 432.314ZM229.02 443.869L230.258 452.477L232.846 452.105C233.99 451.94 235.022 451.329 235.715 450.406C236.407 449.482 236.705 448.322 236.54 447.181C236.376 446.039 235.765 445.01 234.84 444.319C233.915 443.628 232.752 443.333 231.608 443.497L229.02 443.869Z" fill="#010E11" fill-opacity="0.12"/>
<path fill-rule="evenodd" clip-rule="evenodd" d="M104.078 606.736C105.03 606.599 105.914 607.259 106.05 608.21L106.793 613.375L113.694 612.383C114.647 612.246 115.531 612.905 115.667 613.856C115.804 614.807 115.142 615.689 114.189 615.826L107.288 616.818L108.525 625.426L111.113 625.054C113.173 624.758 115.265 625.29 116.93 626.534C118.595 627.777 119.696 629.63 119.991 631.685C120.287 633.74 119.752 635.828 118.505 637.49C117.257 639.152 115.4 640.252 113.341 640.548L110.753 640.92L111.495 646.085C111.632 647.036 110.97 647.918 110.017 648.055C109.064 648.192 108.181 647.532 108.044 646.581L107.302 641.416L98.675 642.656C97.7221 642.793 96.8389 642.134 96.7022 641.183C96.5655 640.232 97.2272 639.35 98.1801 639.213L106.807 637.973L105.57 629.365L102.981 629.737C100.922 630.033 98.8301 629.501 97.1652 628.257C95.5003 627.014 94.399 625.161 94.1036 623.106C93.8082 621.051 94.343 618.963 95.5902 617.301C96.8374 615.639 98.6949 614.539 100.754 614.243L103.342 613.871L102.6 608.706C102.463 607.755 103.125 606.873 104.078 606.736ZM103.837 617.314L101.249 617.686C100.105 617.851 99.0731 618.462 98.3802 619.385C97.6873 620.309 97.3903 621.469 97.5544 622.61C97.7184 623.752 98.3303 624.781 99.2552 625.472C100.18 626.163 101.342 626.458 102.486 626.294L105.075 625.922L103.837 617.314ZM109.02 628.869L110.258 637.477L112.846 637.105C113.99 636.94 115.022 636.329 115.715 635.406C116.407 634.482 116.705 633.322 116.54 632.181C116.376 631.039 115.765 630.01 114.84 629.319C113.915 628.628 112.752 628.333 111.608 628.497L109.02 628.869Z" fill="#010E11" fill-opacity="0.12"/>
<path fill-rule="evenodd" clip-rule="evenodd" d="M201.467 226.369C202.344 225.974 203.376 226.363 203.771 227.238L205.916 231.995L212.272 229.128C213.149 228.732 214.181 229.121 214.576 229.997C214.971 230.873 214.58 231.903 213.702 232.299L207.346 235.166L210.921 243.093L213.305 242.018C215.201 241.163 217.359 241.094 219.303 241.828C221.248 242.561 222.82 244.036 223.673 245.928C224.526 247.82 224.592 249.975 223.854 251.918C223.116 253.861 221.637 255.432 219.74 256.288L217.357 257.363L219.502 262.119C219.897 262.995 219.506 264.026 218.628 264.421C217.751 264.817 216.719 264.428 216.324 263.552L214.179 258.796L206.234 262.379C205.356 262.775 204.325 262.386 203.93 261.51C203.535 260.635 203.926 259.604 204.804 259.208L212.749 255.625L209.173 247.697L206.79 248.772C204.894 249.628 202.736 249.696 200.791 248.963C198.847 248.23 197.275 246.755 196.422 244.862C195.568 242.97 195.503 240.816 196.241 238.873C196.978 236.93 198.458 235.358 200.355 234.503L202.738 233.428L200.593 228.671C200.198 227.796 200.589 226.765 201.467 226.369ZM204.168 236.599L201.785 237.674C200.731 238.149 199.909 239.022 199.499 240.102C199.09 241.181 199.126 242.378 199.6 243.429C200.074 244.48 200.947 245.3 202.027 245.707C203.108 246.115 204.306 246.077 205.36 245.601L207.743 244.526L204.168 236.599ZM212.351 246.264L215.927 254.192L218.31 253.117C219.364 252.642 220.186 251.768 220.596 250.689C221.005 249.61 220.969 248.413 220.495 247.361C220.021 246.31 219.148 245.491 218.067 245.083C216.987 244.676 215.788 244.714 214.735 245.189L212.351 246.264Z" fill="#010E11" fill-opacity="0.12"/>
<path fill-rule="evenodd" clip-rule="evenodd" d="M207.929 34.5854C208.849 34.8683 209.366 35.8419 209.084 36.7601L207.551 41.7476L214.215 43.7964C215.136 44.0793 215.653 45.0529 215.371 45.9711C215.088 46.8893 214.113 47.4043 213.193 47.1214L206.529 45.0726L203.973 53.3851L206.473 54.1534C208.461 54.7647 210.126 56.1392 211.101 57.9744C212.075 59.8097 212.28 61.9554 211.67 63.9396C211.06 65.9237 209.686 67.5838 207.848 68.5545C206.011 69.5253 203.861 69.7272 201.873 69.1159L199.374 68.3476L197.84 73.3351C197.558 74.2533 196.583 74.7683 195.663 74.4854C194.743 74.2025 194.226 73.2289 194.508 72.3107L196.041 67.3232L187.711 64.7622C186.79 64.4793 186.273 63.5057 186.555 62.5875C186.838 61.6693 187.812 61.1543 188.733 61.4372L197.063 63.9982L199.619 55.6857L197.12 54.9174C195.131 54.3061 193.466 52.9317 192.492 51.0964C191.517 49.2611 191.312 47.1154 191.922 45.1313C192.532 43.1471 193.907 41.4871 195.744 40.5163C197.581 39.5455 199.731 39.3436 201.719 39.9549L204.218 40.7232L205.752 35.7357C206.034 34.8175 207.009 34.3025 207.929 34.5854ZM203.196 44.0482L200.697 43.2799C199.592 42.9403 198.398 43.0525 197.378 43.5918C196.357 44.1311 195.593 45.0534 195.254 46.1557C194.915 47.258 195.029 48.45 195.571 49.4696C196.112 50.4892 197.037 51.2528 198.142 51.5924L200.641 52.3607L203.196 44.0482ZM202.951 56.7101L200.396 65.0226L202.895 65.7909C204 66.1305 205.194 66.0183 206.215 65.479C207.235 64.9397 207.999 64.0175 208.338 62.9152C208.677 61.8128 208.563 60.6208 208.022 59.6012C207.48 58.5816 206.555 57.818 205.45 57.4784L202.951 56.7101Z" fill="#010E11" fill-opacity="0.12"/>
<path fill-rule="evenodd" clip-rule="evenodd" d="M339.758 572.008C340.351 571.923 340.9 572.333 340.985 572.925L341.447 576.137L345.74 575.52C346.333 575.435 346.882 575.845 346.967 576.437C347.052 577.028 346.641 577.577 346.048 577.662L341.755 578.279L342.525 583.634L344.134 583.402C345.415 583.218 346.717 583.549 347.753 584.323C348.788 585.097 349.473 586.249 349.657 587.527C349.841 588.806 349.508 590.104 348.732 591.138C347.956 592.172 346.801 592.857 345.52 593.041L343.91 593.272L344.372 596.485C344.457 597.077 344.045 597.625 343.453 597.71C342.86 597.796 342.31 597.385 342.225 596.794L341.764 593.581L336.397 594.352C335.804 594.438 335.255 594.027 335.17 593.436C335.085 592.844 335.496 592.296 336.089 592.21L341.456 591.439L340.686 586.084L339.076 586.316C337.795 586.5 336.494 586.169 335.458 585.395C334.422 584.622 333.737 583.469 333.553 582.191C333.37 580.913 333.702 579.614 334.478 578.58C335.254 577.546 336.409 576.861 337.69 576.677L339.3 576.446L338.838 573.233C338.753 572.642 339.165 572.093 339.758 572.008ZM339.608 578.588L337.998 578.819C337.287 578.922 336.645 579.302 336.214 579.876C335.783 580.451 335.598 581.172 335.7 581.882C335.802 582.592 336.183 583.233 336.758 583.662C337.333 584.092 338.056 584.276 338.768 584.174L340.378 583.942L339.608 578.588ZM342.832 585.776L343.602 591.13L345.212 590.899C345.924 590.797 346.566 590.417 346.997 589.842C347.428 589.268 347.613 588.546 347.51 587.836C347.408 587.126 347.028 586.486 346.452 586.056C345.877 585.626 345.154 585.442 344.442 585.544L342.832 585.776Z" fill="#010E11" fill-opacity="0.12"/>
<path fill-rule="evenodd" clip-rule="evenodd" d="M49.3389 558.572C49.9089 558.755 50.2226 559.365 50.0395 559.934L49.0449 563.024L53.1735 564.353C53.7436 564.536 54.0573 565.146 53.8742 565.715C53.6911 566.284 53.0805 566.596 52.5105 566.413L48.3818 565.084L46.7241 570.233L48.2724 570.732C49.5042 571.128 50.5284 571.997 51.1197 573.146C51.711 574.296 51.8208 575.632 51.4252 576.861C51.0295 578.09 50.1606 579.112 49.0098 579.7C47.859 580.289 46.5204 580.397 45.2885 580.001L43.7403 579.502L42.7456 582.592C42.5625 583.161 41.952 583.473 41.3819 583.29C40.8119 583.106 40.4982 582.496 40.6813 581.927L41.6759 578.838L36.5151 577.176C35.9451 576.993 35.6314 576.383 35.8145 575.814C35.9976 575.245 36.6082 574.933 37.1782 575.117L42.339 576.778L43.9967 571.628L42.4485 571.13C41.2166 570.733 40.1924 569.865 39.6011 568.715C39.0099 567.566 38.9 566.229 39.2957 565C39.6914 563.771 40.5602 562.75 41.711 562.161C42.8619 561.572 44.2005 561.464 45.4323 561.861L46.9806 562.359L47.9752 559.27C48.1583 558.701 48.7689 558.388 49.3389 558.572ZM46.3175 564.419L44.7693 563.921C44.0849 563.7 43.3412 563.76 42.7019 564.087C42.0625 564.415 41.5798 564.982 41.36 565.665C41.1402 566.348 41.2012 567.09 41.5297 567.729C41.8582 568.367 42.4272 568.85 43.1116 569.07L44.6598 569.569L46.3175 564.419ZM46.061 572.293L44.4033 577.442L45.9516 577.941C46.6359 578.161 47.3796 578.101 48.019 577.774C48.6583 577.447 49.141 576.88 49.3608 576.197C49.5807 575.514 49.5196 574.771 49.1911 574.133C48.8627 573.494 48.2936 573.012 47.6093 572.791L46.061 572.293Z" fill="#010E11" fill-opacity="0.12"/>
<path fill-rule="evenodd" clip-rule="evenodd" d="M373.182 436.326C373.752 436.509 374.066 437.119 373.883 437.688L372.888 440.778L377.017 442.107C377.587 442.29 377.9 442.9 377.717 443.469C377.534 444.038 376.924 444.35 376.354 444.167L372.225 442.838L370.567 447.987L372.116 448.485C373.347 448.882 374.372 449.751 374.963 450.9C375.554 452.05 375.664 453.386 375.268 454.615C374.873 455.844 374.004 456.866 372.853 457.454C371.702 458.043 370.364 458.151 369.132 457.755L367.583 457.256L366.589 460.346C366.406 460.915 365.795 461.227 365.225 461.043C364.655 460.86 364.341 460.25 364.524 459.681L365.519 456.592L360.358 454.93C359.788 454.747 359.475 454.137 359.658 453.568C359.841 452.999 360.451 452.687 361.021 452.87L366.182 454.532L367.84 449.382L366.292 448.884C365.06 448.487 364.036 447.619 363.444 446.469C362.853 445.32 362.743 443.983 363.139 442.754C363.535 441.525 364.403 440.504 365.554 439.915C366.705 439.326 368.044 439.218 369.275 439.615L370.824 440.113L371.818 437.024C372.001 436.455 372.612 436.142 373.182 436.326ZM370.161 442.173L368.612 441.675C367.928 441.454 367.184 441.514 366.545 441.841C365.906 442.168 365.423 442.736 365.203 443.419C364.983 444.102 365.044 444.844 365.373 445.483C365.701 446.121 366.27 446.604 366.955 446.824L368.503 447.322L370.161 442.173ZM369.904 450.047L368.246 455.196L369.795 455.695C370.479 455.915 371.223 455.855 371.862 455.528C372.501 455.201 372.984 454.634 373.204 453.951C373.424 453.268 373.363 452.525 373.034 451.887C372.706 451.248 372.137 450.766 371.452 450.545L369.904 450.047Z" fill="#010E11" fill-opacity="0.12"/>
<path fill-rule="evenodd" clip-rule="evenodd" d="M352.182 215.326C352.752 215.509 353.066 216.119 352.883 216.688L351.888 219.778L356.017 221.107C356.587 221.29 356.9 221.9 356.717 222.469C356.534 223.038 355.924 223.35 355.354 223.167L351.225 221.838L349.567 226.987L351.116 227.485C352.347 227.882 353.372 228.751 353.963 229.9C354.554 231.05 354.664 232.386 354.268 233.615C353.873 234.844 353.004 235.866 351.853 236.454C350.702 237.043 349.364 237.151 348.132 236.755L346.583 236.256L345.589 239.346C345.406 239.915 344.795 240.227 344.225 240.043C343.655 239.86 343.341 239.25 343.524 238.681L344.519 235.592L339.358 233.93C338.788 233.747 338.475 233.137 338.658 232.568C338.841 231.999 339.451 231.687 340.021 231.87L345.182 233.532L346.84 228.382L345.292 227.884C344.06 227.487 343.036 226.619 342.444 225.469C341.853 224.32 341.743 222.983 342.139 221.754C342.535 220.525 343.403 219.504 344.554 218.915C345.705 218.326 347.044 218.218 348.275 218.615L349.824 219.113L350.818 216.024C351.001 215.455 351.612 215.142 352.182 215.326ZM349.161 221.173L347.612 220.675C346.928 220.454 346.184 220.514 345.545 220.841C344.906 221.168 344.423 221.736 344.203 222.419C343.983 223.102 344.044 223.844 344.373 224.483C344.701 225.121 345.27 225.604 345.955 225.824L347.503 226.322L349.161 221.173ZM348.904 229.047L347.246 234.196L348.795 234.695C349.479 234.915 350.223 234.855 350.862 234.528C351.501 234.201 351.984 233.634 352.204 232.951C352.424 232.268 352.363 231.525 352.034 230.887C351.706 230.248 351.137 229.766 350.452 229.545L348.904 229.047Z" fill="#010E11" fill-opacity="0.12"/>
<path fill-rule="evenodd" clip-rule="evenodd" d="M181.182 131.326C181.752 131.509 182.066 132.119 181.883 132.688L180.888 135.778L185.017 137.107C185.587 137.29 185.9 137.9 185.717 138.469C185.534 139.038 184.924 139.35 184.354 139.167L180.225 137.838L178.567 142.987L180.116 143.485C181.347 143.882 182.372 144.751 182.963 145.9C183.554 147.05 183.664 148.386 183.268 149.615C182.873 150.844 182.004 151.866 180.853 152.454C179.702 153.043 178.364 153.151 177.132 152.755L175.583 152.256L174.589 155.346C174.406 155.915 173.795 156.227 173.225 156.043C172.655 155.86 172.341 155.25 172.524 154.681L173.519 151.592L168.358 149.93C167.788 149.747 167.475 149.137 167.658 148.568C167.841 147.999 168.451 147.687 169.021 147.87L174.182 149.532L175.84 144.382L174.292 143.884C173.06 143.487 172.036 142.619 171.444 141.469C170.853 140.32 170.743 138.983 171.139 137.754C171.535 136.525 172.403 135.504 173.554 134.915C174.705 134.326 176.044 134.218 177.275 134.615L178.824 135.113L179.818 132.024C180.001 131.455 180.612 131.142 181.182 131.326ZM178.161 137.173L176.612 136.675C175.928 136.454 175.184 136.514 174.545 136.841C173.906 137.168 173.423 137.736 173.203 138.419C172.983 139.102 173.044 139.844 173.373 140.483C173.701 141.121 174.27 141.604 174.955 141.824L176.503 142.322L178.161 137.173ZM177.904 145.047L176.246 150.196L177.795 150.695C178.479 150.915 179.223 150.855 179.862 150.528C180.501 150.201 180.984 149.634 181.204 148.951C181.424 148.268 181.363 147.525 181.034 146.887C180.706 146.248 180.137 145.766 179.452 145.545L177.904 145.047Z" fill="#010E11" fill-opacity="0.12"/>
<path fill-rule="evenodd" clip-rule="evenodd" d="M42.2138 206.149C43.1289 205.803 44.15 206.263 44.4946 207.177L46.3662 212.136L52.9938 209.635C53.9089 209.29 54.9301 209.75 55.2746 210.663C55.6192 211.576 55.1567 212.597 54.2416 212.942L47.614 215.443L50.7335 223.709L53.2188 222.771C55.1963 222.025 57.3886 222.093 59.3133 222.961C61.2381 223.828 62.7378 225.424 63.4824 227.397C64.227 229.37 64.1555 231.559 63.2838 233.482C62.412 235.405 60.8113 236.904 58.8338 237.651L56.3485 238.589L58.2202 243.548C58.5647 244.461 58.1022 245.482 57.1871 245.827C56.2721 246.172 55.2509 245.712 54.9064 244.799L53.0347 239.839L44.7502 242.965C43.8351 243.311 42.814 242.851 42.4694 241.937C42.1248 241.024 42.5873 240.004 43.5024 239.659L51.7869 236.533L48.6675 228.266L46.1821 229.204C44.2046 229.95 42.0124 229.882 40.0876 229.015C38.1628 228.147 36.6631 226.551 35.9185 224.578C35.1739 222.605 35.2454 220.416 36.1172 218.493C36.9889 216.571 38.5896 215.071 40.5671 214.325L43.0524 213.387L41.1808 208.427C40.8362 207.514 41.2987 206.494 42.2138 206.149ZM44.3002 216.693L41.8149 217.631C40.7163 218.046 39.827 218.879 39.3427 219.947C38.8584 221.015 38.8187 222.231 39.2323 223.328C39.646 224.424 40.4791 225.31 41.5485 225.792C42.6178 226.274 43.8357 226.312 44.9343 225.898L47.4197 224.96L44.3002 216.693ZM51.9813 227.016L55.1007 235.282L57.5861 234.344C58.6846 233.93 59.5739 233.097 60.0582 232.028C60.5425 230.96 60.5822 229.744 60.1686 228.648C59.7549 227.552 58.9218 226.665 57.8524 226.183C56.7831 225.701 55.5652 225.663 54.4666 226.078L51.9813 227.016Z" fill="#010E11" fill-opacity="0.12"/>
<path fill-rule="evenodd" clip-rule="evenodd" d="M139.614 329.169C140.327 329.183 140.894 329.77 140.881 330.481L140.809 334.345L145.972 334.442C146.685 334.455 147.252 335.043 147.238 335.754C147.225 336.465 146.636 337.031 145.924 337.018L140.76 336.921L140.64 343.361L142.576 343.397C144.117 343.426 145.583 344.064 146.652 345.172C147.72 346.279 148.305 347.765 148.276 349.302C148.247 350.839 147.608 352.302 146.498 353.368C145.388 354.435 143.9 355.018 142.359 354.989L140.423 354.953L140.35 358.816C140.337 359.528 139.748 360.094 139.036 360.08C138.323 360.067 137.756 359.479 137.769 358.768L137.841 354.904L131.387 354.783C130.674 354.77 130.107 354.183 130.121 353.471C130.134 352.76 130.723 352.194 131.435 352.207L137.889 352.328L138.01 345.889L136.074 345.852C134.533 345.823 133.067 345.185 131.998 344.078C130.929 342.97 130.345 341.485 130.374 339.948C130.403 338.411 131.042 336.948 132.152 335.881C133.261 334.815 134.75 334.232 136.291 334.261L138.227 334.297L138.299 330.433C138.313 329.722 138.901 329.156 139.614 329.169ZM138.179 336.873L136.243 336.837C135.387 336.821 134.56 337.144 133.943 337.737C133.327 338.329 132.971 339.142 132.955 339.996C132.939 340.85 133.264 341.675 133.858 342.291C134.452 342.906 135.266 343.26 136.122 343.276L138.058 343.313L138.179 336.873ZM140.592 345.937L140.471 352.377L142.407 352.413C143.263 352.429 144.09 352.105 144.707 351.513C145.323 350.92 145.678 350.107 145.694 349.253C145.71 348.399 145.386 347.574 144.792 346.959C144.198 346.344 143.384 345.989 142.528 345.973L140.592 345.937Z" fill="#010E11" fill-opacity="0.12"/>
</svg>
